<?xml version="1.0" encoding="UTF-8"?>
<svg id="close_icon" xmlns="http://www.w3.org/2000/svg" version="1.1" viewBox="0 0 32 32">
  <!-- Generator: Adobe Illustrator 29.6.0, SVG Export Plug-In . SVG Version: 2.1.1 Build 207)  -->
  <path d="M5.29,17.11c-.3,0-.58-.12-.79-.33s-.33-.49-.33-.79c0-.3.12-.58.33-.79s.49-.33.79-.33h21.41c.3,0,.58.11.79.33s.33.49.33.79c0,.3-.12.58-.33.79s-.49.33-.79.32H5.29Z"/>
  <path d="M5.29,24.28c-.3,0-.58-.12-.79-.33s-.33-.49-.33-.79c0-.3.12-.58.33-.79s.49-.33.79-.33h21.41c.3,0,.58.11.79.33s.33.49.33.79c0,.3-.12.58-.33.79s-.49.33-.79.32H5.29Z"/>
  <path d="M5.29,9.95c-.3,0-.58-.12-.79-.33s-.33-.49-.33-.79c0-.3.12-.58.33-.79s.49-.33.79-.33h21.41c.3,0,.58.11.79.33s.33.49.33.79c0,.3-.12.58-.33.79s-.49.33-.79.32H5.29Z"/>
</svg>