<?xml version="1.0" encoding="UTF-8"?>
<svg id="close_icon" xmlns="http://www.w3.org/2000/svg" version="1.1" viewBox="0 0 32 32">
  <!-- Generator: Adobe Illustrator 29.6.0, SVG Export Plug-In . SVG Version: 2.1.1 Build 207)  -->
  <path d="M23.55,24.7c-.3,0-.58-.12-.79-.33l-6.79-6.79-6.79,6.79c-.21.21-.49.33-.79.33s-.58-.12-.79-.33c-.21-.21-.33-.49-.33-.79s.12-.58.33-.79l6.78-6.78-6.79-6.79c-.21-.21-.33-.49-.33-.79s.12-.58.33-.79c.21-.21.49-.33.79-.33s.58.12.79.33l6.79,6.78,6.79-6.78c.21-.21.49-.33.79-.33s.58.12.79.33c.21.21.33.49.33.79s-.12.58-.33.79l-6.79,6.79,6.79,6.79c.43.43.43,1.14,0,1.57-.21.21-.49.33-.79.33Z"/>
</svg>