<svg version="1.1" id="edit_icon" x="0px" y="0px" viewBox="0 0 32 32" style="enable-background:new 0 0 32 32;">
<path d="M29,2.9c-1.8-1.8-4.5-2.1-6.2-0.8
	c-0.1,0.1-0.3,0.1-0.4,0.2L5.8,19.5c-0.1,0.1-0.2,0.2-0.2,0.3l-3.5,8.8C2,29,2.1,29.4,2.4,29.7C2.6,29.9,2.8,30,3.1,30
	c0.1,0,0.3,0,0.4-0.1l8.9-3.7c0.1,0,0.2-0.1,0.3-0.2L29.5,9.5c0,0,0.1-0.1,0.1-0.1C31.2,7.8,31,4.9,29,2.9z M27.6,4.3
	C28.7,5.4,29,7,28.2,7.9L28.1,8c-0.9,0.7-2.4,0.5-3.5-0.6c-1.1-1.1-1.4-2.8-0.6-3.6c0.3-0.3,0.8-0.5,1.3-0.5
	C26,3.3,26.9,3.6,27.6,4.3z M6.3,23.5c0.5,0.9,1.3,1.7,2.2,2.2l-3.7,1.5L6.3,23.5z M11.5,24.4c-0.1,0-0.2,0-0.2,0
	c-2,0-3.7-1.7-3.7-3.7L21.6,6.1c0.2,1,0.7,1.9,1.5,2.7c0.8,0.8,1.7,1.3,2.6,1.5L11.5,24.4z"/>
</svg>
