<svg version="1.1" id="fullscreen_icon" x="0px" y="0px" viewBox="0 0 32 32" style="enable-background:new 0 0 32 32;">
<g>
	<path d="M27.4,6.2c-1.2,1.2-2.2,2.2-3.2,3.2c-1.7,1.7-3.4,3.4-5,5C18.6,15,18,15,17.5,14.6c-0.5-0.5-0.4-1.1,0.2-1.7
		c2.5-2.5,5.1-5.1,7.6-7.6c0.2-0.2,0.3-0.3,0.6-0.6c-0.8,0-1.5,0-2.2,0c-0.8,0-1.7,0-2.5,0c-0.6,0-1.1-0.5-1.1-1.1
		c0-0.6,0.4-1,1.1-1c2.4,0,4.8,0,7.2,0c0.6,0,1.1,0.4,1.1,1c0,2.4,0,4.8,0,7.3c0,0.6-0.5,1-1,1c-0.6,0-1-0.4-1-1.1
		c0-1.3,0-2.6,0-3.9C27.4,6.8,27.4,6.6,27.4,6.2z"/>
	<path d="M4.6,25.8c1.2-1.2,2.2-2.2,3.2-3.2c1.7-1.7,3.4-3.4,5-5c0.6-0.6,1.2-0.6,1.6-0.2c0.5,0.5,0.4,1.1-0.2,1.7
		c-2.5,2.5-5.1,5.1-7.6,7.6c-0.2,0.2-0.3,0.3-0.6,0.6c0.8,0,1.5,0,2.2,0c0.8,0,1.7,0,2.5,0c0.6,0,1.1,0.5,1.1,1.1c0,0.6-0.4,1-1.1,1
		c-2.4,0-4.8,0-7.2,0c-0.6,0-1.1-0.4-1.1-1c0-2.4,0-4.8,0-7.3c0-0.6,0.5-1,1-1c0.6,0,1,0.4,1,1.1c0,1.3,0,2.6,0,3.9
		C4.6,25.2,4.6,25.4,4.6,25.8z"/>
</g>
<g>
	<path d="M4.7,4.6c0,0,0,3,0,3.7c0,0.8,0,1.7,0,2.5c0,0.6-0.5,1.1-1.1,1.1c-0.6,0-1-0.4-1-1.1c0-2.4,0-4.8,0-7.2
		c0-0.6,0.4-1.1,1-1.1c2.4,0,4.8,0,7.3,0c0.6,0,1,0.5,1,1c0,0.6-0.4,1-1.1,1C9.6,4.6,4.7,4.6,4.7,4.6z"/>
</g>
<g>
	<path d="M27.4,27.3c0,0,0-3,0-3.7c0-0.8,0-1.7,0-2.5c0-0.6,0.5-1.1,1.1-1.1c0.6,0,1,0.4,1,1.1c0,2.4,0,4.8,0,7.2
		c0,0.6-0.4,1.1-1,1.1c-2.4,0-4.8,0-7.3,0c-0.6,0-1-0.5-1-1c0-0.6,0.4-1,1.1-1C22.5,27.3,27.4,27.3,27.4,27.3z"/>
</g>
</svg>
