<svg version="1.1" id="preferences_icon" x="0px" y="0px" viewBox="0 0 32 32" style="enable-background:new 0 0 32 32;">
<path d="M23.3,9.5c-0.6,0-1-0.4-1-1c0-0.6,0.4-1,0.9-1h4.4c0.6,0,1,0.4,1,1c0,0.6-0.4,1-0.9,1H23.3z M14.7,9.5c0.5,0,1-0.4,1-1
	c0-0.6-0.4-1-1-1H4.3c-0.5,0-1,0.4-1,1s0.5,1,1,1H14.7z M21.4,8.5c0-1.3-1-2.3-2.3-2.3s-2.3,1-2.3,2.3s1,2.3,2.3,2.3
	S21.4,9.8,21.4,8.5z M27.7,17c0.5,0,1-0.4,1-1c0-0.6-0.4-1-1-1H16.4c-0.6,0-1,0.4-1,1c0,0.6,0.4,1,1,1H27.7z M7.8,17
	c0.6,0,1-0.4,1-1c0-0.6-0.4-1-1-1H4.3c-0.6,0-1,0.4-1,1c0,0.6,0.4,1,1,1H7.8z M14.5,16c0-1.3-1-2.3-2.3-2.3s-2.3,1-2.3,2.3
	s1,2.3,2.3,2.3S14.5,17.3,14.5,16z M27.7,24.5c0.5,0,1-0.4,1-1c0-0.6-0.4-1-1-1h-1.6c-0.6,0-1,0.4-1,1s0.4,1,1,1H27.7z M17.6,24.5
	c0.6,0,1-0.4,1-1s-0.4-1-1-1H4.3c-0.5,0-1,0.4-1,1c0,0.6,0.4,1,1,1H17.6z M24.3,23.5c0-1.3-1-2.3-2.3-2.3c-1.3,0-2.3,1-2.3,2.3
	s1,2.3,2.3,2.3C23.2,25.8,24.3,24.8,24.3,23.5z"/>
</svg>
