<svg version="1.1" id="themeicon" xmlns="http://www.w3.org/2000/svg" x="0px" y="0px"
	 viewBox="0 0 32 32" style="enable-background:new 0 0 32 32;">
<path id="light" d="M25.9,16c0-5.5-4.5-9.9-9.9-9.9S6.1,10.5,6.1,16s4.4,9.9,9.9,9.9S25.9,21.4,25.9,16z M24,16c0,4.4-3.5,8-8,8
	c-4.4,0-8-3.5-8-8s3.6-8,8-8S24,11.5,24,16z M16,5.3c-0.6,0-1-0.4-1-1V1.6c0-0.6,0.4-1,1-1s1,0.4,1,1v2.7C17,4.8,16.5,5.3,16,5.3z
	 M17,30.4v-2.7c0-0.6-0.4-1-1-1s-1,0.4-1,1v2.7c0,0.6,0.4,1,1,1S17,30.9,17,30.4z M26.7,16c0-0.6,0.4-1,1-1h2.7c0.6,0,1,0.4,1,1
	s-0.4,1-1,1h-2.7C27.1,17,26.7,16.6,26.7,16z M1.6,17h2.7c0.6,0,1-0.4,1-1s-0.4-1-1-1H1.6c-0.6,0-1,0.4-1,1S1,17,1.6,17z M23.5,23.6
	c0.4-0.4,1-0.4,1.4,0l1.2,1.2c0.4,0.4,0.4,1,0,1.4s-1,0.4-1.4,0L23.5,25C23.2,24.6,23.2,24,23.5,23.6z M5.8,7.2L7,8.4
	c0.4,0.4,1,0.4,1.4,0s0.4-1,0-1.4L7.2,5.8c-0.4-0.4-1-0.4-1.4,0C5.4,6.2,5.4,6.8,5.8,7.2z M8.4,23.6c0.4,0.4,0.4,1,0,1.4l-1.2,1.2
	c-0.4,0.4-1,0.4-1.4,0c-0.4-0.4-0.4-1,0-1.4L7,23.6C7.3,23.2,8,23.2,8.4,23.6z M24.7,5.8L23.5,7c-0.4,0.4-0.4,1,0,1.4s1,0.4,1.4,0
	l1.2-1.2c0.4-0.4,0.4-1,0-1.4C25.7,5.4,25.1,5.4,24.7,5.8z"/>
<path id="dark" d="M18.3,5c0.7,0,1.4,0.1,2,0.2c0.5,0.1,0.5,0.7,0.1,0.9c-3.7,1.8-6.3,5.6-6.3,10s2.6,8.2,6.3,10c0.4,0.2,0.3,0.8-0.1,0.9
	c-0.6,0.1-1.3,0.2-2,0.2c-1,0-2-0.1-3.1-0.4c-4-1.1-7.1-4.6-7.8-8.7c-0.1-0.7-0.1-1.3-0.1-1.9s0-1.3,0.1-1.9C8,10,11.2,6.5,15.2,5.4
	C16.2,5.1,17.3,5,18.3,5 M18.3,3L18.3,3c-1.2,0-2.4,0.2-3.6,0.5C9.8,4.8,6.2,8.8,5.4,13.7c-0.1,0.8-0.2,1.5-0.2,2.3s0.1,1.5,0.2,2.2
	c0.8,4.9,4.5,9,9.3,10.3c1.2,0.3,2.4,0.5,3.6,0.5c0.8,0,1.6-0.1,2.4-0.2c1.1-0.2,1.9-1,2-2.1c0.1-1.1-0.4-2.1-1.4-2.6
	c-3.2-1.5-5.1-4.7-5.1-8.2s2-6.6,5.1-8.2c1-0.5,1.5-1.5,1.4-2.6c-0.1-1.1-0.9-1.9-2-2.1C19.8,3,19,3,18.3,3L18.3,3z"/>
</svg>
