<svg version="1.1" id="user_icon" x="0px" y="0px" viewBox="0 0 32 32" style="enable-background:new 0 0 32 32;" >
<path d="M16,29c-9.8,0-11.9-1.6-12.2-2c-0.2-0.2-0.3-0.4-0.3-0.7c0-4.3,1.7-8.3,4.6-11.1
	c0.4-0.4,1-0.3,1.4,0.1s0.3,1-0.1,1.4c-2.4,2.2-3.8,5.5-4,9C6.3,26.1,9,27,16,27c6.9,0,9.7-0.8,10.5-1.2c-0.1-3.6-1.6-6.8-4-9.1
	c-0.4-0.4-0.4-1-0.1-1.4s1-0.4,1.4-0.1c3,2.7,4.7,6.8,4.7,11.1c0,0.3-0.1,0.5-0.3,0.7C27.9,27.4,25.8,29,16,29z M23.7,10.7
	C23.7,6.4,20.2,3,16,3s-7.7,3.4-7.7,7.7s3.4,7.7,7.7,7.7S23.7,14.9,23.7,10.7z M21.7,10.7c0,3.1-2.5,5.7-5.7,5.7
	c-3.1,0-5.7-2.5-5.7-5.7S12.9,5,16,5C19.1,5,21.7,7.5,21.7,10.7z"/>
</svg>
